<?xml version="1.0" encoding="utf-8"?>
<!-- Generator: Adobe Illustrator 16.0.0, SVG Export Plug-In . SVG Version: 6.00 Build 0)  -->
<!DOCTYPE svg PUBLIC "-//W3C//DTD SVG 1.1//EN" "http://www.w3.org/Graphics/SVG/1.1/DTD/svg11.dtd">
<svg version="1.1" id="Layer_1" xmlns="http://www.w3.org/2000/svg" xmlns:xlink="http://www.w3.org/1999/xlink" x="0px" y="0px"
	 width="136px" height="121px" viewBox="32.167 19.5 136 121" enable-background="new 32.167 19.5 136 121" xml:space="preserve">
<path fill="#888888" d="M164.377,120.833L109.685,26.1c-2.001-3.466-5.698-5.6-9.701-5.6c-4.001,0-7.699,2.134-9.701,5.6
	l-55.086,95.415c-2,3.465-2,7.734,0,11.199c2.001,3.467,5.699,5.601,9.701,5.601h110.175c0.011,0,0.023,0,0.031,0
	c6.186,0,11.201-5.015,11.201-11.2C166.303,124.786,165.594,122.623,164.377,120.833z M100,50.948c8,0,9.95,6.014,9.459,9.459
	l-4.8,37.33c-0.16,3.375-2.784,4.659-4.659,4.659c-2.101,0-4.475-1.106-4.659-4.659l-4.8-37.33
	C90.05,56.863,92.05,50.948,100,50.948z M106.915,124.187c-1.804,1.822-4.331,2.88-6.915,2.88c-2.587,0-5.114-1.058-6.936-2.88
	c-1.821-1.822-2.859-4.35-2.859-6.936c0-2.566,1.039-5.094,2.859-6.916c1.822-1.822,4.349-2.86,6.936-2.86
	c2.584,0,5.111,1.036,6.915,2.86c1.841,1.822,2.88,4.35,2.88,6.916C109.795,119.837,108.757,122.364,106.915,124.187z"/>
</svg>
